<?xml version="1.0" encoding="iso-8859-1"?>
<svg viewBox="0 0 1235 1024" version="1.1" xmlns="http://www.w3.org/2000/svg" xmlns:xlink="http://www.w3.org/1999/xlink" width="241.2109375" height="200">
  <path d="M902.571681 1024c-3.350865-3.31033-7.958304-2.296964-11.9307-3.323842-36.670352-9.566179-61.058704-32.576352-73.327194-68.044176-19.970074-57.694328-39.318617-115.618351-58.964413-173.447795q-42.04795-123.752306-84.244528-247.4911c-0.702601-2.040244-0.824205-4.485835-2.783379-5.999129 0.094581-0.297254 0.189162-0.60802 0.270231-0.918785 16.051724-13.430483 33.211395-25.41523 49.911673-37.994485q54.694763-41.237257 109.632734-82.190772c3.431934-2.567195 6.755776-5.161413 9.106786-8.863578 1.202528-0.162139 1.905129 0.162139 1.553829 1.553829-0.945809 3.540027 0.716112 6.647684 1.783525 9.782364Q901.990684 578.29443 960.53624 749.52633a24.604536 24.604536 0 0 1 1.080924 3.188727c1.080924 5.228971 3.080634 5.985618 7.552958 2.52666 14.768126-11.417262 29.806484-22.483223 44.75026-33.6843l55.059575-41.304814c20.942906-15.700424 44.020637-24.604536 70.665418-23.712774 46.020346 1.540317 88.338528 39.723963 93.93231 85.31194 0.270231 2.215895 0.864739 4.391254 1.351155 6.580126 1.243063 4.810113 0.283743 9.714806 0.594508 14.551941-1.351155 30.144273-14.36278 54.775832-37.670207 73.165055-57.559212 45.398815-117.050576 88.27097-175.474527 132.534815-14.524919 10.984892-29.103883 21.888714-43.628802 32.900629-16.524628 12.525209-34.711177 21.388787-55.937826 22.415665h-2.70231a34.049111 34.049111 0 0 0-14.862708 0z" fill="#33A28C" p-id="781"></path>
  <path d="M123.036194 0h16.213862c17.078602 2.445591 33.238418 7.336773 47.695779 17.186694 19.726866 13.511552 32.670933 31.914286 40.318472 54.23537q37.832346 110.375869 75.448507 220.819297 34.049111 99.796324 68.071199 199.606159c0.675578 1.972687 0.513439 4.688509 3.350865 5.404621a1.351155 1.351155 0 0 1 0 1.74299c-37.832346 27.50952-74.894533 56.045918-112.402602 83.974296-16.781348 12.498186-33.468115 25.104464-50.235951 37.60265-2.202383 1.634898-4.053466 4.377743-7.512423 3.56705q-28.617467-83.447346-57.234934-166.88118C110.173196 350.070804 73.30017 242.937707 37.156768 135.574914c-13.660179-40.534656-5.66134-77.29959 25.063929-107.916767C78.920976 11.011915 99.877393 2.904984 123.036194 0z" fill="#338FDE" p-id="782"></path>
  <path d="M374.013274 498.576273l0.162139-1.351155 185.310937-139.168987Q580.996741 341.842268 602.615224 325.628406a4.134535 4.134535 0 0 1 2.621241 1.770013 28.049982 28.049982 0 0 1 2.850938 6.823334c16.389513 49.519838 33.77888 98.63433 50.357555 148.154169 3.931862 11.728027 8.228535 23.33445 12.052304 35.130035 0.824205 2.553683 1.99971 5.05332 1.351155 7.863724l-0.567485 0.445881q-112.38909 84.271551-224.764669 168.556613c-1.418713 1.080924-2.986053 1.972687-4.485836 2.95903-3.31033-1.189017-3.661631-4.377743-4.566904-7.053031-10.484964-31.07657-21.334741-62.15314-31.941309-93.229709-10.309314-30.225342-20.564582-60.464196-31.07657-90.635492-0.878251-2.580706-2.188871-5.13439-0.43237-7.8367zM841.769697 397.239632l-1.243063-1.459248c-2.891472-1.607875-3.350865-4.674997-4.256139-7.390819-17.565018-52.92475-36.21096-105.484687-53.762466-158.422948-3.3914-10.228245-7.850212-20.10519-10.26878-30.671223a2.364522 2.364522 0 0 1 0.770159-1.932152c18.916173-12.944067 36.643329-27.523032 55.127133-41.061607 21.76711-15.943631 42.115508-33.95453 65.46347-47.587687 62.031536-36.251494 139.047383 0.486416 149.55937 71.476111 5.877525 39.602359-8.87709 71.759853-40.12931 95.729347-51.641152 39.588848-103.930859 78.245398-155.855754 117.26676z" fill="#33D6DC" p-id="783"></path>
  <path d="M772.968873 197.403776v1.094436c-1.459248 2.70231-4.296674 3.904839-6.607149 5.634317q-77.448217 58.099674-154.977502 116.199348c-2.70231 2.026733-4.918205 4.580416-7.56647 6.661196L602.615224 325.628406c0.675578-3.31033-0.95932-6.134245-1.959175-9.079763-18.146014-52.857192-36.075844-105.76843-54.397509-158.463483-9.768852-28.131051-11.660469-56.194545 1.905129-83.285208 19.605262-39.183501 52.087033-59.288691 95.93202-56.991726 42.764062 2.242918 72.705662 25.199045 88.068297 64.787892 13.822318 35.589428 25.199045 72.138177 37.69723 108.241044 0.824205 2.296964 0.905274 4.95874 3.107657 6.566614z" fill="#33A28C" p-id="784"></path>
  <path d="M0 836.270495v-16.213863c3.7427-33.103303 20.388932-58.194255 46.912109-77.786005 52.451845-38.751131 104.55239-77.975167 156.801562-116.99653 4.296674 4.364231 5.201948 10.336337 7.107077 15.740958 7.363796 20.794279 14.227664 41.764208 21.294206 62.653068 12.633301 37.318907 25.671949 74.489187 37.832346 111.943209 1.026878 3.13468 2.945518 6.188291 1.634897 9.741829-34.7382 25.969203-69.570982 51.843825-104.201089 77.948144-21.456345 16.213863-44.925911 25.671949-72.300316 24.888279C49.614419 926.716825 7.363796 889.060129 1.351155 844.228799c-0.364812-2.675287-0.891762-5.31004-1.351155-7.958304z" fill="#33D6DC" p-id="785"></path>
  <path d="M441.652104 698.452663q17.821737 52.600472 35.629963 105.187434c7.701585 22.753454 15.740958 45.398815 23.104754 68.260361 20.051143 62.315278-17.159671 123.495586-81.907029 132.642907-44.844841 6.336918-87.284627-17.794714-104.701017-60.572288-15.740958-38.629527-27.725705-78.704791-40.872445-118.30715-0.675578-3.269796 2.242918-4.161558 4.053465-5.485691q79.326322-59.639991 158.801272-119.104332c1.688944-1.297109 3.283307-3.202238 5.891037-2.621241z" fill="#338FDE" p-id="786"></path>
  <path d="M441.652104 698.452663q-48.560518 36.481191-97.094014 72.962382-35.873171 27.023104-71.611226 54.221858a3.580561 3.580561 0 0 1-1.283597-0.364811l-40.534657-119.144867q-13.727737-40.453587-27.414939-80.934197a2.513149 2.513149 0 0 1 0.324277-1.067413q82.069168-61.450539 164.084289-122.955124c1.82406-1.351155 3.337353-3.080634 5.891037-2.60773 10.025572 29.50923 19.983586 59.058994 30.090227 88.541201Q422.911581 642.231095 442.003404 697.196089a4.404766 4.404766 0 0 1-0.3513 1.256574z" fill="#0A7AC0" p-id="787"></path>
  <path d="M603.831264 326.979561c-0.459393-3.715677 2.70231-5.012786 4.864159-6.647684q78.839907-59.329225 157.855463-118.428754c1.905129-1.418713 3.7427-3.323842 6.431499-3.458957 9.066251 23.41552 16.565163 47.385013 24.645071 71.151833q21.456345 63.071925 42.858643 126.170874c0.067558 2.986053-1.445736 4.891182-3.796746 6.661195q-80.420758 60.207476-160.78747 120.536557a32.427725 32.427725 0 0 1-4.053466 2.242917c-6.607149-18.781057-13.376437-37.494557-19.807935-56.329661Q627.814269 398.023302 603.831264 326.979561z" fill="#0A887A" p-id="788"></path>
</svg>